<svg xmlns="http://www.w3.org/2000/svg" viewBox="0 0 64 64">
  <!-- Background -->
  <rect width="64" height="64" rx="14" fill="#0a0d0c"/>
  <!-- Shield body -->
  <path d="M32 6 L54 16 L54 36 C54 50 32 60 32 60 C32 60 10 50 10 36 L10 16 Z"
        fill="#22c55e"/>
  <!-- Inner shield highlight -->
  <path d="M32 11 L50 20 L50 36 C50 47 32 56 32 56 C32 56 14 47 14 36 L14 20 Z"
        fill="none" stroke="rgba(255,255,255,0.15)" stroke-width="1"/>
  <!-- B letterform -->
  <path d="M22 22 L22 43 L33 43 C38 43 42 40 42 35.5 C42 33 40.5 31 38.5 30 C40 29 41 27.5 41 25.5 C41 23 38 22 34 22 Z
           M26.5 26 L33 26 C35.5 26 37 27 37 29 C37 31 35.5 32 33 32 L26.5 32 Z
           M26.5 35.5 L33.5 35.5 C36.5 35.5 37.5 37 37.5 39 C37.5 41 35.5 39.5 33.5 39.5 L26.5 39.5 Z"
        fill="white"/>
</svg>
